<svg width="45" height="45" viewBox="0 0 45 45" fill="none" xmlns="http://www.w3.org/2000/svg">
<mask id="mask0_218_1145" style="mask-type:alpha" maskUnits="userSpaceOnUse" x="0" y="0" width="45" height="45">
<rect width="45" height="45" fill="#D9D9D9"/>
</mask>
<g mask="url(#mask0_218_1145)">
<path d="M14.9531 33.2812H30.0469V30.4688H14.9531V33.2812ZM14.9531 25.3125H30.0469V22.5H14.9531V25.3125ZM10.3125 41.25C9.5625 41.25 8.90625 40.9688 8.34375 40.4063C7.78125 39.8438 7.5 39.1875 7.5 38.4375V6.5625C7.5 5.8125 7.78125 5.15625 8.34375 4.59375C8.90625 4.03125 9.5625 3.75 10.3125 3.75H27.2344L37.5 14.0156V38.4375C37.5 39.1875 37.2188 39.8438 36.6562 40.4063C36.0938 40.9688 35.4375 41.25 34.6875 41.25H10.3125ZM25.8281 15.2812V6.5625H10.3125V38.4375H34.6875V15.2812H25.8281Z" fill="white"/>
</g>
</svg>
