<svg width="45" height="45" viewBox="0 0 45 45" fill="none" xmlns="http://www.w3.org/2000/svg">
<g id="move_item">
<mask id="mask0_202_746" style="mask-type:alpha" maskUnits="userSpaceOnUse" x="0" y="0" width="45" height="45">
<rect id="Bounding box" width="45" height="45" fill="#D9D9D9"/>
</mask>
<g mask="url(#mask0_202_746)">
<path id="move_item_2" d="M37.7812 24.375H15V20.625H37.7812L34.875 17.7188L37.5 15L45 22.5L37.5 30L34.875 27.2812L37.7812 24.375ZM28.125 16.875V9.375H9.375V35.625H28.125V28.125H31.875V35.625C31.875 36.6562 31.5078 37.5391 30.7734 38.2734C30.0391 39.0078 29.1562 39.375 28.125 39.375H9.375C8.34375 39.375 7.46094 39.0078 6.72656 38.2734C5.99219 37.5391 5.625 36.6562 5.625 35.625V9.375C5.625 8.34375 5.99219 7.46094 6.72656 6.72656C7.46094 5.99219 8.34375 5.625 9.375 5.625H28.125C29.1562 5.625 30.0391 5.99219 30.7734 6.72656C31.5078 7.46094 31.875 8.34375 31.875 9.375V16.875H28.125Z" fill="white"/>
</g>
</g>
</svg>
