<svg width="45" height="45" viewBox="0 0 45 45" fill="none" xmlns="http://www.w3.org/2000/svg">
<g id="person_edit">
<mask id="mask0_202_738" style="mask-type:alpha" maskUnits="userSpaceOnUse" x="0" y="0" width="45" height="45">
<rect id="Bounding box" width="45" height="45" fill="#D9D9D9"/>
</mask>
<g mask="url(#mask0_202_738)">
<path id="person_edit_2" d="M7.5 37.5V32.25C7.5 31.1875 7.77344 30.2109 8.32031 29.3203C8.86719 28.4297 9.59375 27.75 10.5 27.2812C12.4375 26.3125 14.4062 25.5859 16.4062 25.1016C18.4062 24.6172 20.4375 24.375 22.5 24.375C23.6562 24.375 24.7969 24.4453 25.9219 24.5859C27.0469 24.7266 28.1719 24.9531 29.2969 25.2656L26.1562 28.4531C25.5312 28.3594 24.9219 28.2812 24.3281 28.2188C23.7344 28.1562 23.125 28.125 22.5 28.125C20.75 28.125 19.0156 28.3359 17.2969 28.7578C15.5781 29.1797 13.875 29.8125 12.1875 30.6562C11.9062 30.8125 11.6797 31.0312 11.5078 31.3125C11.3359 31.5938 11.25 31.9062 11.25 32.25V33.75H22.5V37.5H7.5ZM26.25 39.375V33.6094L36.6094 23.2969C36.8906 23.0156 37.2031 22.8125 37.5469 22.6875C37.8906 22.5625 38.2344 22.5 38.5781 22.5C38.9531 22.5 39.3125 22.5703 39.6562 22.7109C40 22.8516 40.3125 23.0625 40.5938 23.3438L42.3281 25.0781C42.5781 25.3594 42.7734 25.6719 42.9141 26.0156C43.0547 26.3594 43.125 26.7031 43.125 27.0469C43.125 27.3906 43.0625 27.7422 42.9375 28.1016C42.8125 28.4609 42.6094 28.7812 42.3281 29.0625L32.0156 39.375H26.25ZM29.0625 36.5625H30.8438L36.5156 30.8438L35.6719 29.9531L34.7812 29.1094L29.0625 34.7812V36.5625ZM35.6719 29.9531L34.7812 29.1094L36.5156 30.8438L35.6719 29.9531ZM22.5 22.5C20.4375 22.5 18.6719 21.7656 17.2031 20.2969C15.7344 18.8281 15 17.0625 15 15C15 12.9375 15.7344 11.1719 17.2031 9.70313C18.6719 8.23438 20.4375 7.5 22.5 7.5C24.5625 7.5 26.3281 8.23438 27.7969 9.70313C29.2656 11.1719 30 12.9375 30 15C30 17.0625 29.2656 18.8281 27.7969 20.2969C26.3281 21.7656 24.5625 22.5 22.5 22.5ZM22.5 18.75C23.5312 18.75 24.4141 18.3828 25.1484 17.6484C25.8828 16.9141 26.25 16.0312 26.25 15C26.25 13.9688 25.8828 13.0859 25.1484 12.3516C24.4141 11.6172 23.5312 11.25 22.5 11.25C21.4688 11.25 20.5859 11.6172 19.8516 12.3516C19.1172 13.0859 18.75 13.9688 18.75 15C18.75 16.0312 19.1172 16.9141 19.8516 17.6484C20.5859 18.3828 21.4688 18.75 22.5 18.75Z" fill="white"/>
</g>
</g>
</svg>
