<svg width="45" height="46" viewBox="0 0 45 46" fill="none" xmlns="http://www.w3.org/2000/svg">
<g id="backup">
<mask id="mask0_218_1155" style="mask-type:alpha" maskUnits="userSpaceOnUse" x="0" y="0" width="45" height="46">
<rect id="Bounding box" y="0.5" width="45" height="45" fill="#D9D9D9"/>
</mask>
<g mask="url(#mask0_218_1155)">
<path id="backup_2" d="M12.1875 38C9.34375 38 6.91406 37.0156 4.89844 35.0469C2.88281 33.0781 1.875 30.6719 1.875 27.8281C1.875 25.3906 2.60938 23.2188 4.07813 21.3125C5.54688 19.4062 7.46875 18.1875 9.84375 17.6562C10.625 14.7812 12.1875 12.4531 14.5312 10.6719C16.875 8.89063 19.5312 8 22.5 8C26.1562 8 29.2578 9.27344 31.8047 11.8203C34.3516 14.3672 35.625 17.4688 35.625 21.125C37.7812 21.375 39.5703 22.3047 40.9922 23.9141C42.4141 25.5234 43.125 27.4062 43.125 29.5625C43.125 31.9062 42.3047 33.8984 40.6641 35.5391C39.0234 37.1797 37.0312 38 34.6875 38H24.375C23.3438 38 22.4609 37.6328 21.7266 36.8984C20.9922 36.1641 20.625 35.2812 20.625 34.25V24.5938L17.625 27.5L15 24.875L22.5 17.375L30 24.875L27.375 27.5L24.375 24.5938V34.25H34.6875C36 34.25 37.1094 33.7969 38.0156 32.8906C38.9219 31.9844 39.375 30.875 39.375 29.5625C39.375 28.25 38.9219 27.1406 38.0156 26.2344C37.1094 25.3281 36 24.875 34.6875 24.875H31.875V21.125C31.875 18.5312 30.9609 16.3203 29.1328 14.4922C27.3047 12.6641 25.0938 11.75 22.5 11.75C19.9062 11.75 17.6953 12.6641 15.8672 14.4922C14.0391 16.3203 13.125 18.5312 13.125 21.125H12.1875C10.375 21.125 8.82812 21.7656 7.54688 23.0469C6.26562 24.3281 5.625 25.875 5.625 27.6875C5.625 29.5 6.26562 31.0469 7.54688 32.3281C8.82812 33.6094 10.375 34.25 12.1875 34.25H16.875V38H12.1875Z" fill="white"/>
</g>
</g>
</svg>
