<svg width="36" height="36" viewBox="0 0 36 36" fill="none" xmlns="http://www.w3.org/2000/svg">
<g id="backup">
<mask id="mask0_196_639" style="mask-type:alpha" maskUnits="userSpaceOnUse" x="0" y="0" width="36" height="36">
<rect id="Bounding box" x="0.5" y="0.5" width="35" height="35" fill="#D9D9D9"/>
</mask>
<g mask="url(#mask0_196_639)">
<path id="backup_2" d="M9.97884 29.6666C7.76704 29.6666 5.87728 28.901 4.30957 27.3697C2.74186 25.8385 1.95801 23.9669 1.95801 21.7551C1.95801 19.8593 2.52919 18.1701 3.67155 16.6874C4.81391 15.2048 6.3087 14.2569 8.15592 13.8437C8.76356 11.6076 9.97884 9.79679 11.8018 8.41138C13.6247 7.02596 15.6906 6.33325 17.9997 6.33325C20.8434 6.33325 23.2558 7.3237 25.2367 9.30461C27.2176 11.2855 28.208 13.6978 28.208 16.5416C29.8851 16.736 31.2766 17.4591 32.3825 18.7109C33.4884 19.9626 34.0413 21.427 34.0413 23.1041C34.0413 24.927 33.4033 26.4765 32.1273 27.7525C30.8512 29.0286 29.3018 29.6666 27.4788 29.6666H19.458C18.6559 29.6666 17.9693 29.381 17.3981 28.8098C16.8269 28.2386 16.5413 27.552 16.5413 26.7499V19.2395L14.208 21.4999L12.1663 19.4583L17.9997 13.6249L23.833 19.4583L21.7913 21.4999L19.458 19.2395V26.7499H27.4788C28.4997 26.7499 29.3625 26.3975 30.0674 25.6926C30.7722 24.9878 31.1247 24.1249 31.1247 23.1041C31.1247 22.0833 30.7722 21.2204 30.0674 20.5155C29.3625 19.8107 28.4997 19.4583 27.4788 19.4583H25.2913V16.5416C25.2913 14.5242 24.5804 12.8046 23.1585 11.3827C21.7367 9.96086 20.017 9.24992 17.9997 9.24992C15.9823 9.24992 14.2627 9.96086 12.8408 11.3827C11.4189 12.8046 10.708 14.5242 10.708 16.5416H9.97884C8.56912 16.5416 7.36599 17.0399 6.36947 18.0364C5.37294 19.0329 4.87467 20.236 4.87467 21.6458C4.87467 23.0555 5.37294 24.2586 6.36947 25.2551C7.36599 26.2517 8.56912 26.7499 9.97884 26.7499H13.6247V29.6666H9.97884Z" fill="black"/>
</g>
</g>
</svg>
