<svg width="96" height="95" viewBox="0 0 96 95" fill="none" xmlns="http://www.w3.org/2000/svg">
<path d="M50.5613 38.8891C50.5225 39.3692 50.3117 39.8191 49.9678 40.1562L49.0102 41.0949C48.8451 41.2568 48.7491 41.4764 48.7426 41.7077V41.7077C48.7293 42.1815 49.0888 42.5811 49.5591 42.6407C54.0365 43.2077 58.2012 45.2707 61.3697 48.5076C64.1585 51.3527 66.0411 54.9609 66.7793 58.8759C67.5175 62.7909 67.0782 66.8369 65.5169 70.5022C63.9557 74.1675 61.3426 77.2876 58.0081 79.4678C54.6736 81.648 50.7675 82.7905 46.7837 82.7507C42.7999 82.711 38.9173 81.4908 35.627 79.2444C32.3367 76.9981 29.7864 73.8265 28.2986 70.1308C26.8108 66.435 26.4523 62.3811 27.2685 58.4816C28.0847 54.5821 30.0389 51.0122 32.884 48.2233C36.2318 44.9417 40.4555 43.0618 44.8098 42.5942C45.2811 42.5436 45.6481 42.1511 45.6442 41.6771V41.6771C45.6423 41.4456 45.5507 41.2238 45.3886 41.0585L44.4733 40.1247C44.1223 39.7666 43.9186 39.2897 43.9026 38.7886L43.458 24.8813L43.4579 13.1498C43.4579 10.6178 45.5105 8.56531 48.0424 8.56531V8.56531C50.72 8.56531 52.8277 10.8503 52.612 13.5191L50.5613 38.8891ZM37.2227 52.6495C31.7121 58.0511 31.6242 66.8598 37.0259 72.3703C42.4275 77.8809 51.2362 77.9688 56.7467 72.5671C62.2573 67.1655 62.3452 58.3569 56.9435 52.8463C51.5419 47.3358 42.7332 47.2478 37.2227 52.6495Z" fill="#D5DD18"/>
<circle cx="46.5461" cy="62.5185" r="13.4314" transform="rotate(-128.753 46.5461 62.5185)" stroke="#D5DD18" stroke-width="2"/>
<path d="M52.6745 54.8212H41.1705C40.2666 54.8212 39.527 55.5607 39.527 56.4646V67.9686C39.527 68.8725 40.2666 69.612 41.1705 69.612H52.6745C53.5784 69.612 54.3179 68.8725 54.3179 67.9686V56.4646C54.3179 55.5607 53.5784 54.8212 52.6745 54.8212ZM47.7442 66.3252H43.6356C43.1837 66.3252 42.8139 65.9554 42.8139 65.5035C42.8139 65.0515 43.1837 64.6817 43.6356 64.6817H47.7442C48.1961 64.6817 48.5659 65.0515 48.5659 65.5035C48.5659 65.9554 48.1961 66.3252 47.7442 66.3252ZM50.2093 63.0383H43.6356C43.1837 63.0383 42.8139 62.6685 42.8139 62.2166C42.8139 61.7647 43.1837 61.3949 43.6356 61.3949H50.2093C50.6613 61.3949 51.031 61.7647 51.031 62.2166C51.031 62.6685 50.6613 63.0383 50.2093 63.0383ZM50.2093 59.7515H43.6356C43.1837 59.7515 42.8139 59.3817 42.8139 58.9297C42.8139 58.4778 43.1837 58.108 43.6356 58.108H50.2093C50.6613 58.108 51.031 58.4778 51.031 58.9297C51.031 59.3817 50.6613 59.7515 50.2093 59.7515Z" fill="#D5DD18"/>
</svg>
