<svg width="128" height="36" viewBox="0 0 128 36" fill="none" xmlns="http://www.w3.org/2000/svg">
<path d="M112.95 15.0805C112.8 15.3782 112.544 15.6086 112.233 15.7264L111.876 15.8617C111.783 15.897 111.707 15.9672 111.664 16.0575V16.0575C111.577 16.2425 111.649 16.4631 111.824 16.5685C113.49 17.5719 114.773 19.1124 115.46 20.9438C116.065 22.5542 116.181 24.3086 115.793 25.9852C115.405 27.6619 114.531 29.1854 113.281 30.3631C112.03 31.5408 110.46 32.3199 108.769 32.6018C107.077 32.8837 105.341 32.6557 103.778 31.9467C102.216 31.2377 100.898 30.0796 99.9914 28.6187C99.0848 27.1578 98.63 25.4599 98.6845 23.7395C98.7391 22.0191 99.3006 20.3537 100.298 18.9537C101.296 17.5537 102.684 16.4821 104.288 15.8744C106.176 15.1592 108.165 15.1508 109.962 15.7237C110.156 15.7857 110.369 15.6943 110.449 15.5062V15.5062C110.489 15.4143 110.491 15.3107 110.456 15.2171L110.322 14.8616C110.204 14.5478 110.209 14.2008 110.335 13.8904L115.063 2.27872C115.418 1.40826 116.45 1.04418 117.269 1.50088L117.931 1.87016C118.665 2.27965 118.946 3.1985 118.566 3.95069L112.95 15.0805ZM105.23 18.3796C102.123 19.5567 100.562 23.0247 101.734 26.1438C102.907 29.2629 106.361 30.8306 109.468 29.6535C112.575 28.4764 114.136 25.0084 112.964 21.8893C111.791 18.7702 108.337 17.2026 105.23 18.3796Z" fill="#D5DD18"/>
<path fill-rule="evenodd" clip-rule="evenodd" d="M111.89 22.6245C111.225 20.145 108.677 18.6736 106.197 19.338C103.718 20.0023 102.246 22.5509 102.911 25.0304C103.575 27.5098 106.124 28.9812 108.603 28.3169C111.083 27.6525 112.554 25.1039 111.89 22.6245ZM113.399 22.22C112.511 18.9068 109.106 16.9406 105.793 17.8284C102.48 18.7161 100.513 22.1217 101.401 25.4349C102.289 28.748 105.694 30.7142 109.008 29.8265C112.321 28.9387 114.287 25.5332 113.399 22.22Z" fill="#D5DD18"/>
<path d="M90.675 17.9204C92.3087 17.9204 93.6089 18.4539 94.5758 19.5208C95.5594 20.571 96.0512 22.0213 96.0512 23.8718V32.0236H91.8002V24.4469C91.8002 23.5133 91.5585 22.7882 91.075 22.2714C90.5916 21.7546 89.9415 21.4962 89.1246 21.4962C88.3078 21.4962 87.6576 21.7546 87.1742 22.2714C86.6907 22.7882 86.449 23.5133 86.449 24.4469V32.0236H82.173V18.0704H86.449V19.9209C86.8824 19.3041 87.4659 18.8206 88.1994 18.4705C88.9329 18.1038 89.7581 17.9204 90.675 17.9204Z" fill="white"/>
<path d="M76.1987 16.6202C75.4485 16.6202 74.8317 16.4035 74.3482 15.97C73.8815 15.5199 73.6481 14.9698 73.6481 14.3197C73.6481 13.6528 73.8815 13.1027 74.3482 12.6693C74.8317 12.2192 75.4485 11.9941 76.1987 11.9941C76.9321 11.9941 77.5323 12.2192 77.999 12.6693C78.4825 13.1027 78.7242 13.6528 78.7242 14.3197C78.7242 14.9698 78.4825 15.5199 77.999 15.97C77.5323 16.4035 76.9321 16.6202 76.1987 16.6202ZM78.3241 18.0705V32.0236H74.0482V18.0705H78.3241Z" fill="white"/>
<path d="M71.0506 14.4697V17.8954H63.899V21.5963H69.2502V24.922H63.899V32.0236H59.623V14.4697H71.0506Z" fill="white"/>
<path d="M53.6487 16.6202C52.8985 16.6202 52.2817 16.4035 51.7982 15.97C51.3315 15.5199 51.0981 14.9698 51.0981 14.3197C51.0981 13.6528 51.3315 13.1027 51.7982 12.6693C52.2817 12.2192 52.8985 11.9941 53.6487 11.9941C54.3822 11.9941 54.9823 12.2192 55.4491 12.6693C55.9325 13.1027 56.1742 13.6528 56.1742 14.3197C56.1742 14.9698 55.9325 15.5199 55.4491 15.97C54.9823 16.4035 54.3822 16.6202 53.6487 16.6202ZM55.7741 18.0705V32.0236H51.4982V18.0705H55.7741Z" fill="white"/>
<path d="M48.3662 28.3978V32.0236H46.1907C44.6404 32.0236 43.4317 31.6485 42.5649 30.8983C41.698 30.1315 41.2646 28.8895 41.2646 27.1725V21.6212H39.5642V18.0704H41.2646V14.6697H45.5406V18.0704H48.3412V21.6212H45.5406V27.2225C45.5406 27.6393 45.6406 27.9393 45.8406 28.1227C46.0407 28.3061 46.3741 28.3978 46.8408 28.3978H48.3662Z" fill="white"/>
<path d="M33.4195 20.396C33.9196 19.6291 34.5448 19.029 35.2949 18.5956C36.0451 18.1455 36.8786 17.9204 37.7955 17.9204V22.4464H36.6202C35.5533 22.4464 34.7532 22.6798 34.2197 23.1466C33.6862 23.5967 33.4195 24.3969 33.4195 25.5471V32.0236H29.1436V18.0704H33.4195V20.396Z" fill="white"/>
<path d="M17.7391 27.4694H8.11667L6.57414 32.0236H0L9.32866 6.24121H16.6006L25.9293 32.0236H19.2817L17.7391 27.4694ZM16.1232 22.6215L12.9279 13.1826L9.76939 22.6215H16.1232Z" fill="white"/>
</svg>
